<mxfile host="app.diagrams.net" modified="2024-06-02T19:21:46.491Z" agent="Mozilla/5.0 (Windows NT 10.0; Win64; x64) AppleWebKit/537.36 (KHTML, like Gecko) Chrome/125.0.0.0 Safari/537.36" etag="Aj1jy2-RJGWiCdD4O5E0" version="24.4.13" type="device">
  <diagram name="Page-1" id="0afEsoEVys7NCbNCqspc">
    <mxGraphModel dx="989" dy="514" grid="1" gridSize="10" guides="1" tooltips="1" connect="1" arrows="1" fold="1" page="1" pageScale="1" pageWidth="827" pageHeight="1169" math="0" shadow="0">
      <root>
        <mxCell id="0" />
        <mxCell id="1" parent="0" />
        <mxCell id="puet4I_meyJ2Ddg2OZoC-1" value="Usuario" style="shape=umlActor;verticalLabelPosition=bottom;verticalAlign=top;html=1;outlineConnect=0;" vertex="1" parent="1">
          <mxGeometry x="140" y="230" width="30" height="60" as="geometry" />
        </mxCell>
        <mxCell id="puet4I_meyJ2Ddg2OZoC-6" value="" style="swimlane;startSize=0;" vertex="1" parent="1">
          <mxGeometry x="240" y="100" width="280" height="320" as="geometry">
            <mxRectangle x="230" y="110" width="50" height="40" as="alternateBounds" />
          </mxGeometry>
        </mxCell>
        <mxCell id="puet4I_meyJ2Ddg2OZoC-7" value="Gestionar sus claves" style="ellipse;whiteSpace=wrap;html=1;" vertex="1" parent="puet4I_meyJ2Ddg2OZoC-6">
          <mxGeometry x="20" y="183" width="90" height="50" as="geometry" />
        </mxCell>
        <mxCell id="puet4I_meyJ2Ddg2OZoC-14" style="rounded=0;orthogonalLoop=1;jettySize=auto;html=1;exitX=0;exitY=0.5;exitDx=0;exitDy=0;entryX=1;entryY=1;entryDx=0;entryDy=0;dashed=1;endArrow=block;endFill=0;" edge="1" parent="puet4I_meyJ2Ddg2OZoC-6" source="puet4I_meyJ2Ddg2OZoC-8" target="puet4I_meyJ2Ddg2OZoC-7">
          <mxGeometry relative="1" as="geometry" />
        </mxCell>
        <mxCell id="puet4I_meyJ2Ddg2OZoC-15" value="&amp;lt;extend&amp;gt;" style="edgeLabel;html=1;align=center;verticalAlign=middle;resizable=0;points=[];rotation=18;" vertex="1" connectable="0" parent="puet4I_meyJ2Ddg2OZoC-14">
          <mxGeometry x="-0.0664" y="-1" relative="1" as="geometry">
            <mxPoint x="6" y="-7" as="offset" />
          </mxGeometry>
        </mxCell>
        <mxCell id="puet4I_meyJ2Ddg2OZoC-8" value="Consultar claves" style="ellipse;whiteSpace=wrap;html=1;" vertex="1" parent="puet4I_meyJ2Ddg2OZoC-6">
          <mxGeometry x="160" y="233" width="110" height="30" as="geometry" />
        </mxCell>
        <mxCell id="puet4I_meyJ2Ddg2OZoC-12" style="rounded=0;orthogonalLoop=1;jettySize=auto;html=1;exitX=0;exitY=0.5;exitDx=0;exitDy=0;entryX=1;entryY=0;entryDx=0;entryDy=0;dashed=1;endArrow=block;endFill=0;" edge="1" parent="puet4I_meyJ2Ddg2OZoC-6" source="puet4I_meyJ2Ddg2OZoC-10" target="puet4I_meyJ2Ddg2OZoC-7">
          <mxGeometry relative="1" as="geometry" />
        </mxCell>
        <mxCell id="puet4I_meyJ2Ddg2OZoC-10" value="Crear claves" style="ellipse;whiteSpace=wrap;html=1;" vertex="1" parent="puet4I_meyJ2Ddg2OZoC-6">
          <mxGeometry x="160" y="153" width="100" height="30" as="geometry" />
        </mxCell>
        <mxCell id="puet4I_meyJ2Ddg2OZoC-13" style="rounded=0;orthogonalLoop=1;jettySize=auto;html=1;exitX=0;exitY=0.5;exitDx=0;exitDy=0;entryX=1;entryY=0.5;entryDx=0;entryDy=0;dashed=1;endArrow=block;endFill=0;" edge="1" parent="puet4I_meyJ2Ddg2OZoC-6" source="puet4I_meyJ2Ddg2OZoC-11" target="puet4I_meyJ2Ddg2OZoC-7">
          <mxGeometry relative="1" as="geometry" />
        </mxCell>
        <mxCell id="puet4I_meyJ2Ddg2OZoC-11" value="Editar claves" style="ellipse;whiteSpace=wrap;html=1;" vertex="1" parent="puet4I_meyJ2Ddg2OZoC-6">
          <mxGeometry x="174" y="193" width="100" height="30" as="geometry" />
        </mxCell>
        <mxCell id="puet4I_meyJ2Ddg2OZoC-16" value="&amp;lt;extend&amp;gt;" style="edgeLabel;html=1;align=center;verticalAlign=middle;resizable=0;points=[];rotation=0;" vertex="1" connectable="0" parent="puet4I_meyJ2Ddg2OZoC-6">
          <mxGeometry x="146.07840696665357" y="199.0004169763393" as="geometry" />
        </mxCell>
        <mxCell id="puet4I_meyJ2Ddg2OZoC-17" value="&amp;lt;extend&amp;gt;" style="edgeLabel;html=1;align=center;verticalAlign=middle;resizable=0;points=[];rotation=-20;" vertex="1" connectable="0" parent="puet4I_meyJ2Ddg2OZoC-6">
          <mxGeometry x="128.9984069666536" y="169.0004169763393" as="geometry">
            <mxPoint x="-1.281712764111577" y="0.5976724774602398" as="offset" />
          </mxGeometry>
        </mxCell>
        <mxCell id="puet4I_meyJ2Ddg2OZoC-18" value="Registrarse" style="ellipse;whiteSpace=wrap;html=1;" vertex="1" parent="puet4I_meyJ2Ddg2OZoC-6">
          <mxGeometry x="170" y="20" width="100" height="30" as="geometry" />
        </mxCell>
        <mxCell id="puet4I_meyJ2Ddg2OZoC-19" value="Iniciar sesiÃ³n" style="ellipse;whiteSpace=wrap;html=1;" vertex="1" parent="puet4I_meyJ2Ddg2OZoC-6">
          <mxGeometry x="170" y="70" width="100" height="30" as="geometry" />
        </mxCell>
        <mxCell id="puet4I_meyJ2Ddg2OZoC-21" value="Acceder a su perfil" style="ellipse;whiteSpace=wrap;html=1;" vertex="1" parent="puet4I_meyJ2Ddg2OZoC-6">
          <mxGeometry x="15" y="110" width="120" height="30" as="geometry" />
        </mxCell>
        <mxCell id="puet4I_meyJ2Ddg2OZoC-22" value="Consultar taxones" style="ellipse;whiteSpace=wrap;html=1;" vertex="1" parent="puet4I_meyJ2Ddg2OZoC-6">
          <mxGeometry x="30" y="270" width="130" height="40" as="geometry" />
        </mxCell>
        <mxCell id="puet4I_meyJ2Ddg2OZoC-28" value="Autentificarse" style="ellipse;whiteSpace=wrap;html=1;" vertex="1" parent="puet4I_meyJ2Ddg2OZoC-6">
          <mxGeometry x="15" y="40" width="100" height="30" as="geometry" />
        </mxCell>
        <mxCell id="puet4I_meyJ2Ddg2OZoC-30" style="rounded=0;orthogonalLoop=1;jettySize=auto;html=1;exitX=0;exitY=0.5;exitDx=0;exitDy=0;dashed=1;endArrow=block;endFill=0;entryX=0.994;entryY=0.269;entryDx=0;entryDy=0;entryPerimeter=0;" edge="1" parent="puet4I_meyJ2Ddg2OZoC-6" source="puet4I_meyJ2Ddg2OZoC-18" target="puet4I_meyJ2Ddg2OZoC-28">
          <mxGeometry relative="1" as="geometry">
            <mxPoint x="170" y="178" as="sourcePoint" />
            <mxPoint x="107" y="200" as="targetPoint" />
          </mxGeometry>
        </mxCell>
        <mxCell id="puet4I_meyJ2Ddg2OZoC-31" style="rounded=0;orthogonalLoop=1;jettySize=auto;html=1;exitX=0;exitY=0.5;exitDx=0;exitDy=0;dashed=1;endArrow=block;endFill=0;entryX=0.953;entryY=0.752;entryDx=0;entryDy=0;entryPerimeter=0;" edge="1" parent="puet4I_meyJ2Ddg2OZoC-6" source="puet4I_meyJ2Ddg2OZoC-19" target="puet4I_meyJ2Ddg2OZoC-28">
          <mxGeometry relative="1" as="geometry">
            <mxPoint x="170" y="50" as="sourcePoint" />
            <mxPoint x="119" y="58" as="targetPoint" />
          </mxGeometry>
        </mxCell>
        <mxCell id="puet4I_meyJ2Ddg2OZoC-32" value="&amp;lt;extend&amp;gt;" style="edgeLabel;html=1;align=center;verticalAlign=middle;resizable=0;points=[];rotation=347;" vertex="1" connectable="0" parent="puet4I_meyJ2Ddg2OZoC-6">
          <mxGeometry x="143.9984069666536" y="33.000416976339295" as="geometry" />
        </mxCell>
        <mxCell id="puet4I_meyJ2Ddg2OZoC-33" value="&amp;lt;extend&amp;gt;" style="edgeLabel;html=1;align=center;verticalAlign=middle;resizable=0;points=[];rotation=19;" vertex="1" connectable="0" parent="puet4I_meyJ2Ddg2OZoC-6">
          <mxGeometry x="148.9984069666536" y="68.0004169763393" as="geometry" />
        </mxCell>
        <mxCell id="puet4I_meyJ2Ddg2OZoC-25" style="rounded=0;orthogonalLoop=1;jettySize=auto;html=1;exitX=0;exitY=0.5;exitDx=0;exitDy=0;endArrow=none;endFill=0;" edge="1" parent="1" source="puet4I_meyJ2Ddg2OZoC-21">
          <mxGeometry relative="1" as="geometry">
            <mxPoint x="200" y="250" as="targetPoint" />
            <mxPoint x="324" y="194" as="sourcePoint" />
          </mxGeometry>
        </mxCell>
        <mxCell id="puet4I_meyJ2Ddg2OZoC-26" style="rounded=0;orthogonalLoop=1;jettySize=auto;html=1;exitX=0;exitY=0.5;exitDx=0;exitDy=0;endArrow=none;endFill=0;" edge="1" parent="1" source="puet4I_meyJ2Ddg2OZoC-7">
          <mxGeometry relative="1" as="geometry">
            <mxPoint x="200" y="280" as="targetPoint" />
            <mxPoint x="265" y="235" as="sourcePoint" />
          </mxGeometry>
        </mxCell>
        <mxCell id="puet4I_meyJ2Ddg2OZoC-27" style="rounded=0;orthogonalLoop=1;jettySize=auto;html=1;exitX=0;exitY=0.5;exitDx=0;exitDy=0;endArrow=none;endFill=0;" edge="1" parent="1" source="puet4I_meyJ2Ddg2OZoC-22">
          <mxGeometry relative="1" as="geometry">
            <mxPoint x="180" y="320" as="targetPoint" />
            <mxPoint x="225" y="380" as="sourcePoint" />
          </mxGeometry>
        </mxCell>
        <mxCell id="puet4I_meyJ2Ddg2OZoC-29" style="rounded=0;orthogonalLoop=1;jettySize=auto;html=1;exitX=0;exitY=0.5;exitDx=0;exitDy=0;endArrow=none;endFill=0;" edge="1" parent="1" source="puet4I_meyJ2Ddg2OZoC-28">
          <mxGeometry relative="1" as="geometry">
            <mxPoint x="180" y="215" as="targetPoint" />
            <mxPoint x="245" y="190" as="sourcePoint" />
          </mxGeometry>
        </mxCell>
        <mxCell id="puet4I_meyJ2Ddg2OZoC-34" value="TAXO.GG" style="text;html=1;align=center;verticalAlign=middle;resizable=0;points=[];autosize=1;strokeColor=none;fillColor=none;" vertex="1" parent="1">
          <mxGeometry x="250" y="98" width="80" height="30" as="geometry" />
        </mxCell>
      </root>
    </mxGraphModel>
  </diagram>
</mxfile>
